<svg xmlns="http://www.w3.org/2000/svg" width="49.6" height="48.56" viewBox="0 0 49.6 48.56">
  <title>build</title>
  <g id="f9975d0a-5c49-4a37-bd7b-7cf97ce3f29d" data-name="Layer 2">
    <g id="a599d94b-3471-4b62-b758-f5501315b43a" data-name="Layer 1">
      <path d="M42.78,18.71l-1.25-3s2.91-6.58,2.65-6.83L40.33,5.15c-.27-.26-6.85,2.74-6.85,2.74l-3-1.23S27.77,0,27.41,0H22c-.37,0-2.85,6.68-2.85,6.68l-3,1.22s-6.71-2.85-7-2.59L5.26,9.08c-.27.26,2.8,6.7,2.8,6.7l-1.26,3S0,21.37,0,21.72v5.33c0,.38,6.82,2.81,6.82,2.81l1.25,3s-2.91,6.57-2.66,6.82l3.86,3.78c.26.25,6.84-2.75,6.84-2.75l3,1.23s2.68,6.66,3.05,6.66h5.44c.38,0,2.86-6.68,2.86-6.68l3-1.23s6.7,2.86,7,2.61l3.85-3.77c.27-.27-2.8-6.7-2.8-6.7l1.25-3s6.81-2.63,6.81-3V21.5C49.6,21.13,42.78,18.71,42.78,18.71Zm-10,5.57A8,8,0,1,1,24.8,16.5,7.88,7.88,0,0,1,32.75,24.28Z" style="fill: #005cb2"/>
    </g>
  </g>
</svg>
