<svg xmlns="http://www.w3.org/2000/svg" width="26.35" height="50.6" viewBox="0 0 26.35 50.6">
  <title>finance</title>
  <g id="a89461ca-270c-4aab-a11e-d8040999c494" data-name="Layer 2">
    <g id="bbb0ecd0-07d4-4d91-b44b-08093df2de3c" data-name="Layer 1">
      <path d="M26,30.81a10.32,10.32,0,0,0-.89-2.16,7.36,7.36,0,0,0-1.5-1.8,18.66,18.66,0,0,0-1.75-1.41,16.86,16.86,0,0,0-2.13-1.2c-.9-.44-1.62-.77-2.15-1l-2.28-.89c-.89-.34-1.55-.59-2-.77s-1-.44-1.71-.77A10.26,10.26,0,0,1,10,20c-.35-.26-.72-.57-1.12-.93a3.29,3.29,0,0,1-.83-1.17,3.78,3.78,0,0,1-.24-1.36,3.71,3.71,0,0,1,1.69-3.13,7.34,7.34,0,0,1,4.38-1.22,9.33,9.33,0,0,1,2.42.33,12.43,12.43,0,0,1,2.1.73,16.22,16.22,0,0,1,1.65.9c.52.33.89.58,1.1.75a3.65,3.65,0,0,1,.41.34.89.89,0,0,0,.76.2.76.76,0,0,0,.65-.45l2.29-4.13a.81.81,0,0,0-.14-1.07l-.42-.39c-.17-.15-.54-.43-1.1-.82a13.49,13.49,0,0,0-1.8-1.06,18.34,18.34,0,0,0-2.45-1,16.31,16.31,0,0,0-3.12-.65V.9A.89.89,0,0,0,16,.25.87.87,0,0,0,15.33,0H11.52a.89.89,0,0,0-.64.27.89.89,0,0,0-.26.63V6a12.84,12.84,0,0,0-7.2,3.78A9.65,9.65,0,0,0,.65,16.6a9.91,9.91,0,0,0,.24,2.21,11.77,11.77,0,0,0,.59,1.87,7.15,7.15,0,0,0,1,1.64A18.41,18.41,0,0,0,3.71,23.7a9.7,9.7,0,0,0,1.51,1.2c.62.42,1.16.75,1.6,1s1,.54,1.76.87,1.32.58,1.74.75l1.74.71c1,.39,1.77.7,2.26.91s1.11.52,1.86.91a7.61,7.61,0,0,1,1.65,1.06,5.17,5.17,0,0,1,1,1.18,2.88,2.88,0,0,1,.42,1.5,3.94,3.94,0,0,1-1.74,3.44,6.81,6.81,0,0,1-4,1.22,10,10,0,0,1-2.09-.23A14.78,14.78,0,0,1,4.49,34.7l-.06-.06a.7.7,0,0,0-.67-.25.88.88,0,0,0-.65.34L.2,38.54A.86.86,0,0,0,.26,39.7a6.4,6.4,0,0,0,.49.51,16.2,16.2,0,0,0,1.31,1.06,18.76,18.76,0,0,0,2.09,1.35A18.18,18.18,0,0,0,7,43.88a17.51,17.51,0,0,0,3.6.87v5a.92.92,0,0,0,.9.9h3.81a.91.91,0,0,0,.65-.25.89.89,0,0,0,.26-.65v-5a12.1,12.1,0,0,0,7.3-3.85,10.76,10.76,0,0,0,2.81-7.44A9.43,9.43,0,0,0,26,30.81Z" style="fill: #005cb2"/>
    </g>
  </g>
</svg>
