<svg xmlns="http://www.w3.org/2000/svg" width="512" height="512" viewBox="0 0 512 512">
  <title>learn</title>
  <g id="b52d6245-e15a-4abc-9e7b-f52cdcc89d9c" data-name="Layer 2">
    <g id="fb7fc0bf-d9a5-44ec-ae4f-551b1f9ce99b" data-name="Layer 1">
      <path d="M256,0C114.84,0,0,114.84,0,256S114.84,512,256,512,512,397.16,512,256,397.16,0,256,0Zm16.65,407.89c-12.16,2-36.36,7.09-48.65,8.11-10.4.86-20.22-5.09-26.2-13.64a32,32,0,0,1-3.88-29.3L242.31,240H192c0-27.73,20.75-48.11,47.35-55.94,12.7-3.73,36.35-8.84,48.65-8.06,7.37.47,20.22,5.09,26.2,13.64a32,32,0,0,1,3.88,29.3L269.69,352H320a56.63,56.63,0,0,1-47.33,55.89ZM288,160a32,32,0,1,1,32-32,32,32,0,0,1-32,32Z" style="fill: #005cb2"/>
    </g>
  </g>
</svg>
