<?xml version="1.0" encoding="utf-8"?>
<!-- Generator: Adobe Illustrator 22.1.0, SVG Export Plug-In . SVG Version: 6.00 Build 0)  -->
<svg version="1.1" id="Layer_1" xmlns="http://www.w3.org/2000/svg" xmlns:xlink="http://www.w3.org/1999/xlink" x="0px" y="0px"
	 viewBox="0 0 150 79.1" style="enable-background:new 0 0 150 79.1;" xml:space="preserve">
<style type="text/css">
	.st0{fill:#EF3B4B;}
	.st1{fill:#364A5E;}
	.st2{fill:#FFFFFF;}
</style>
<path class="st0" d="M84.4,5.1h37.4c13.1,0,23.8,10.7,23.8,23.8v21.3c-0.2,13.2-10.8,23.8-23.9,23.8H28.3
	c-13.1,0-23.8-10.7-23.8-23.8V29c0-13.2,10.7-23.8,23.8-23.8h36.8L84.4,5.1z M28.3,12.6c-9,0-16.3,7.3-16.3,16.4v21.3
	c0,9,7.3,16.3,16.3,16.3h93.3c9,0,16.3-7.3,16.3-16.3V29c0-9-7.3-16.3-16.3-16.3H85.4c0,0-1.3,0-1.8,0.1s-1.4,0.9-1.4,0.9L77.4,17
	c0,0-1.3,0.8-2.4,0.8c-1,0-2.5-0.9-2.5-0.9l-4.6-3.1c0,0-0.6-0.5-1.4-0.8s-2.4-0.3-2.4-0.3L28.3,12.6z"/>
<path class="st1" d="M64.1,12.6c0,0,1.6,0,2.4,0.3s1.4,0.8,1.4,0.8l4.6,3.1c0,0,1.5,0.9,2.5,0.9c1.1,0,2.4-0.8,2.4-0.8l4.8-3.3
	c0,0,0.9-0.8,1.4-0.9c0.5-0.1,1.8-0.1,1.8-0.1h36.2c9,0,16.3,7.3,16.3,16.3v21.3c0,9-7.3,16.3-16.3,16.3H28.3
	c-9,0-16.3-7.3-16.3-16.3V28.9c0-9.1,7.3-16.4,16.3-16.4L64.1,12.6z"/>
<path class="st2" d="M24.7,24h12.2l6.3,8l6.1-8H61v31.7H48V40.2h-0.1l-5.6,7.4l-5.8-7.4h-0.1v15.4H24.7V24z"/>
<path class="st2" d="M97.3,39.8c0-2.3,0.5-4.5,1.4-6.5s2.2-3.7,3.8-5.2c1.6-1.5,3.6-2.6,5.8-3.4c2.3-0.8,4.7-1.2,7.4-1.2
	c1.8,0,3.6,0.2,5.3,0.5c1.7,0.4,3,0.8,4.1,1.3v11.7c-1.1-0.6-2.3-1-3.7-1.4c-1.3-0.4-2.7-0.6-4.2-0.6c-2.2,0-4,0.5-5.1,1.4
	c-1.2,0.9-1.8,2.2-1.8,3.7s0.6,2.7,1.8,3.6c1.2,0.9,2.9,1.4,5.1,1.4c1.5,0,2.9-0.2,4.3-0.6c1.4-0.4,2.6-0.9,3.7-1.5v11.2
	c-0.5,0.3-1.1,0.5-1.9,0.8c-0.7,0.2-1.5,0.5-2.3,0.6c-0.8,0.2-1.7,0.3-2.6,0.4c-0.9,0.1-1.9,0.2-2.8,0.2c-2.7,0-5.1-0.4-7.3-1.2
	c-2.2-0.8-4.2-2-5.8-3.4c-1.6-1.5-2.9-3.2-3.8-5.2S97.3,42.2,97.3,39.8z"/>
<path class="st2" d="M82.7,56c-2.9,0-5.4-0.4-7.7-1.2c-2.3-0.8-4.2-1.9-5.9-3.4c-1.6-1.4-2.9-3.1-3.7-5.1c-0.9-2-1.3-4.1-1.3-6.3
	c0-2.4,0.5-4.6,1.4-6.6s2.2-3.8,3.9-5.3c1.7-1.5,3.7-2.6,6-3.5c2.3-0.8,4.9-1.2,7.6-1.2c2.1,0,4.1,0.2,5.9,0.7
	c1.8,0.4,3.4,1,4.6,1.6v10.9c-0.6-0.3-1.4-0.5-2.1-0.8c-0.8-0.3-1.6-0.5-2.4-0.7s-1.7-0.4-2.5-0.5s-1.6-0.2-2.3-0.2
	c-1.2,0-2.2,0.2-3.1,0.5s-1.6,0.7-2.2,1.3c-0.6,0.5-1,1.2-1.3,1.9s-0.4,1.5-0.4,2.4s0.2,1.8,0.5,2.5s0.8,1.3,1.4,1.9
	c0.6,0.5,1.2,0.9,2,1.2c0.7,0.3,1.5,0.4,2.3,0.4c0.3,0,0.6,0,0.8,0c0.2,0,0.4-0.1,0.5-0.1v-1.6h-3.2v-7.1h13v15.7
	c-1.2,0.7-2.7,1.4-4.7,2C87.6,55.8,85.3,56,82.7,56z"/>
</svg>
