<svg xmlns="http://www.w3.org/2000/svg" width="512" height="512" viewBox="0 0 512 512">
  <title>match</title>
  <g id="b3fd27f6-d9dd-413e-a627-d220bbad019f" data-name="Layer 2">
    <g id="b1cdf3d9-db8a-4242-be23-d0b0fa9c958a" data-name="Layer 1">
      <g>
        <path d="M189,110h5.89A72.2,72.2,0,0,0,241,142.41V184H230.64a15,15,0,0,0,0,30h49a15,15,0,0,0,0-30H271V142.41A72.19,72.19,0,0,0,317.11,110H323a65.08,65.08,0,0,0,65-65V35a15,15,0,0,0-15-15H328V15A15,15,0,0,0,313,0H199a15,15,0,0,0-15,15v5H139a15,15,0,0,0-15,15V45A65.08,65.08,0,0,0,189,110ZM357.64,50a35.09,35.09,0,0,1-30.06,29.7A72.55,72.55,0,0,0,328,72V50ZM214,30h84V72a42,42,0,0,1-84,0ZM184,50V72a72.55,72.55,0,0,0,.42,7.7A35.09,35.09,0,0,1,154.36,50Z" style="fill: #005cb2"/>
        <path d="M497,54.3H473.26A45.63,45.63,0,0,0,428,94.5L412.51,203.23a45.87,45.87,0,0,0-9.76-1,45.33,45.33,0,0,0-32.27,13.36L280.54,305.5A135,135,0,0,0,256,339a135.28,135.28,0,0,0-24.54-33.49l-89.94-89.95a45.33,45.33,0,0,0-32.27-13.36,46,46,0,0,0-9.77,1L84.05,94.5A45.63,45.63,0,0,0,38.74,54.3H15a15,15,0,0,0-15,15V275a45.37,45.37,0,0,0,13.36,32.27L117.67,411.56V497a15,15,0,0,0,15,15H379.33a15,15,0,0,0,15-15V411.56L498.64,307.25A45.37,45.37,0,0,0,512,275V69.3A15,15,0,0,0,497,54.3ZM143.28,394.74,34.58,286A15.56,15.56,0,0,1,30,275V84.3h8.74A15.62,15.62,0,0,1,54.27,98.15c0,.13,0,.26,0,.39L71.81,221.71A45.67,45.67,0,0,0,77,280.13c23.38,23.35,57.26,57.23,57.26,57.23l21.21-21.21s-33.88-33.89-57.27-57.24a15.66,15.66,0,0,1-.09-22.06l.17-.16a15.63,15.63,0,0,1,22,.08l89.94,89.94A104.31,104.31,0,0,1,241,401V482H147.67V405.35a15,15,0,0,0-4.39-10.61ZM482,275A15.56,15.56,0,0,1,477.42,286l-108.7,108.7a15,15,0,0,0-4.39,10.6V482H271V401a104.31,104.31,0,0,1,30.75-74.24l89.95-89.94a15.63,15.63,0,0,1,22-.08l.16.16a15.66,15.66,0,0,1-.09,22.06c-23.39,23.35-57.27,57.24-57.27,57.24l21.21,21.21s33.88-33.88,57.26-57.23a45.67,45.67,0,0,0,5.19-58.42L457.68,98.54c0-.13,0-.26.05-.4A15.62,15.62,0,0,1,473.26,84.3H482Z" style="fill: #005cb2"/>
      </g>
    </g>
  </g>
</svg>
