<svg xmlns="http://www.w3.org/2000/svg" width="43.88" height="46.32" viewBox="0 0 43.88 46.32">
  <title>right</title>
  <g id="aaa3c454-ba6a-4690-a443-0375d31fcfea" data-name="Layer 2">
    <g id="ebd24298-02ef-46e8-a0a6-8172d0269e20" data-name="Layer 1">
      <path d="M29.4,14.29h-9V10.67h9ZM43.88,5.42V14.2a5.43,5.43,0,0,1-5.43,5.43H36.73V40.89a5.44,5.44,0,0,1-5.43,5.43H5.43A5.44,5.44,0,0,1,0,40.89V5.43A5.43,5.43,0,0,1,5.43,0H38.81A5.43,5.43,0,0,1,43.88,5.42ZM33.42,3.62h-28A1.81,1.81,0,0,0,3.62,5.43V40.89A1.81,1.81,0,0,0,5.43,42.7H31.3a1.81,1.81,0,0,0,1.81-1.81V5.43A5.37,5.37,0,0,1,33.42,3.62Zm6.84,1.81a1.77,1.77,0,1,0-3.53,0V16h1.72a1.81,1.81,0,0,0,1.81-1.81ZM17.82,10.52l-2.71-2.4-3.34,3.76L9.47,9.72,7,12.35l5,4.72Zm11.58,11h-9v3.62h9Zm-11.58-.16L15.11,19l-3.34,3.77-2.3-2.17L7,23.21l5,4.71Zm11.58,11h-9V36h9Zm-11.58-.16-2.71-2.4-3.34,3.76-2.3-2.16L7,34.07l5,4.71Z" style="fill: #005cb2"/>
    </g>
  </g>
</svg>
