<svg xmlns="http://www.w3.org/2000/svg" width="533.74" height="682.63" viewBox="0 0 533.74 682.63">
  <title>wheel</title>
  <g id="e4160638-75fb-4531-8151-d347e494390a" data-name="Layer 2">
    <g id="e1ba6a07-9764-49d1-b65c-f4732c71c286" data-name="Layer 1">
      <path d="M98.42,682.63c.12-6.65.29-13.3.35-20,.06-6.47,0-12.94,0-19.9h38.08c2.22-11.62,4.37-22.85,6.5-34.08,3.59-19,7.14-37.94,10.79-56.9.59-3.08.35-4.89-3.08-6.55-57.36-27.74-99.65-70.7-126.38-128.36C-27.78,303.67,5.49,169.81,104.42,93.71a256.63,256.63,0,0,1,83.32-43.13c4.34-1.29,6-3,5.9-7.79-.41-14.13-.14-28.28-.14-42.79H340.35V5.06c0,12.83.15,25.67-.09,38.49-.07,3.76.9,5.41,4.68,6.62,70.74,22.68,124.15,66.5,158.75,132.32,23.89,45.48,33.78,94.28,28.79,145.44-8.7,89.35-52.34,157.45-127.78,205.47-7.14,4.55-14.83,8.26-22.44,12-2.64,1.31-3.26,2.75-2.74,5.43,5.8,30.39,11.54,60.79,17.37,91.61h38.53v40.18Zm72.82-171.85c64.07,28,127.4,28,191.24,0-1.18-2.14-2-3.72-2.91-5.27-26-44.94-52-89.84-77.79-134.9-2.64-4.63-5.1-6.91-10.7-5.93-5.21.92-11.74-1.07-15.65,1.41-4.11,2.61-5.83,9-8.57,13.77C221.8,423.25,196.75,466.61,171.24,510.78ZM40.79,285.13h97.86c22.16,0,44.31-.08,66.47.07,3.6,0,5.7-.72,7.11-4.41a41.34,41.34,0,0,1,6.2-10.75c2.34-2.94,2.39-5,.49-8.23-19.37-33.2-38.52-66.52-57.75-99.8-8.06-13.95-16.15-27.88-24.63-42.52C80.42,160.71,48.69,215.33,40.79,285.13ZM221,344.75c-3.06-5.25-6.29-9.95-8.61-15.05-1.53-3.37-3.18-4.66-7-4.65q-79.45.19-158.91.1c-1.6,0-3.21.19-4.75.28-3.32,50,54.11,148.9,95.39,164.47ZM397.24,119.53l-84.37,146c3.07,5.26,6.3,10,8.62,15.07,1.54,3.39,3.23,4.62,7,4.62q79.44-.2,158.89-.11c1.6,0,3.21-.18,5.45-.31C485,215.57,453.53,160.82,397.24,119.53Zm0,371.24c56-41.64,87.92-96.15,95.69-165.63H406.7c-25.81,0-51.63.06-77.45-.07-3.87,0-6.41.58-7.87,4.82a31.32,31.32,0,0,1-6,10.27c-2.81,3.21-2.09,5.46-.22,8.67,15.58,26.73,31,53.56,46.46,80.36C373.35,449.49,385.1,469.78,397.24,490.77ZM171.31,99c.8,1.6,1.13,2.35,1.54,3q40.54,70.29,81,140.59c1.49,2.59,3.09,3.27,5.94,3a63.09,63.09,0,0,1,13-.06c3.88.47,5.86-.61,7.83-4q35-61.11,70.29-122c3.8-6.59,7.57-13.19,11.64-20.28-8.36-3.28-16.32-6.12-24.05-9.52-5.79-2.55-9.65-1.44-14.17,3.26-18.7,19.45-37.91,38.41-58,58.63-1.33-2-2.14-3.7-3.41-5-18.7-18.77-37.51-37.44-56.14-56.28-2.33-2.36-4.29-3-7.37-1.81C190.26,92.13,181,95.43,171.31,99ZM193,561.49c-5.12,27.2-10.15,53.94-15.24,81H356.11l-15.23-81C291.49,575.24,242.36,575.22,193,561.49ZM234.15,39.8c-2.16,12.65-1.56,24,10.13,31.61a26.72,26.72,0,0,1,3.55,3.51l18.93,18.79C277.58,83,288.14,72.62,298.64,62.16a5,5,0,0,0,1.6-2.93c.14-6.42.07-12.86.07-19.43Zm12.78,264.69c-.13,11.53,8.54,20.57,19.79,20.62,10.84.05,19.94-8.69,20.1-19.31A20,20,0,0,0,267,285.15C256.2,285.09,247.05,293.91,246.93,304.49Z" style="fill: #005cb2"/>
    </g>
  </g>
</svg>
